<svg version="1.1" xmlns="http://www.w3.org/2000/svg" xmlns:xlink="http://www.w3.org/1999/xlink" x="0px" y="0px" width="100%" height="100%" viewBox="0 0 142 142" enable-background="new 0 0 142 142" xml:space="preserve" fit="" preserveAspectRatio="xMidYMid meet" focusable="false">
      <g id="Variants">

          <g>
            <path fill="#1496FF" d="M47.7,12.7c-1.8,9.5-4,23.6-5.2,37.9c-2.1,25.2-0.8,42.1-0.8,42.1L6.2,126.4c0,0-2.7-18.9-4.1-40.2
          C1.3,73,1,61.4,1,54.4c0-0.4,0.2-0.8,0.2-1.2c0-0.5,0.6-5.2,5.2-9.6C11.4,38.8,48.3,9.9,47.7,12.7z"></path>
            <path fill="#1284EA" d="M47.7,12.7c-1.8,9.5-4,23.6-5.2,37.9c0,0-39.3-4.7-41.5,4.8c0-0.5,0.7-6.3,5.3-10.7
          C11.3,39.9,48.3,9.9,47.7,12.7z"></path>
            <path fill="#B4DC00" d="M1,53.1c0,0.7,0,1.4,0,2.2c0.4-1.7,1.1-2.9,2.5-4.8c2.9-3.7,7.6-4.7,9.5-4.9c9.6-1.3,23.8-2.8,38.1-3.2
          c25.3-0.8,42,1.3,42,1.3L128.6,10c0,0-18.6-3.5-39.8-6C74.9,2.3,62.7,1.4,55.8,1c-0.5,0-5.4-0.6-10,3.8
          C40.8,9.6,15.4,33.7,5.2,43.4C0.6,47.8,1,52.7,1,53.1z"></path>
            <path fill="#6F2DA8" d="M127.3,96.2c-9.6,1.3-23.8,2.9-38.1,3.4c-25.3,0.8-42.1-1.3-42.1-1.3l-35.5,33.8c0,0,18.8,3.7,40,6.1
          c13,1.5,24.5,2.3,31.5,2.7c0.5,0,1.3-0.4,1.8-0.4c0.5,0,5.4-0.9,10-5.3C99.9,130.4,130.1,95.9,127.3,96.2z"></path>
            <path fill="#591F91" d="M127.3,96.2c-9.6,1.3-23.8,2.9-38.1,3.4c0,0,2.7,39.5-6.8,41.2c0.5,0,7-0.3,11.6-4.7
          C99,131.3,130.1,95.9,127.3,96.2z"></path>
            <path fill="#73BE28" d="M84.5,141c-0.7,0-1.4-0.1-2.2-0.1c1.8-0.3,3-0.9,4.9-2.3c3.8-2.7,5-7.4,5.4-9.3c1.7-9.5,4-23.6,5.1-37.9
          c2-25.2,0.8-42,0.8-42l35.5-33.8c0,0,2.6,18.8,4.1,40.1c0.9,13.9,1.2,26.2,1.3,33c0,0.5,0.4,5.4-4.2,9.8
          c-5,4.8-30.4,29-40.5,38.7C89.9,141.6,85,141,84.5,141z"></path>
          </g>
      </g>
    </svg>
